# xmcd
#
# Track frame offsets: 
#        150
#        22750
#        42752
#        63893
#        81474
#        105504
#        127158
#        147471
#        171703
#        193380
#
# Disc length: 2864 seconds
#
# Revision: 0
# Processed by: cddbd v1.5.2PL0 Copyright (c) Steve Scherf et al.
# Submitted via: ExactAudioCopy v1.0b3
#
DISCID=920b2e0a
DTITLE=Various Artist - Xuan Yeu Thuong
DYEAR=1998
DGENRE=
TTITLE0=hop ca - Chuc Tet
TTITLE1=Ngoc Han, Thao Suong - Dam cuoi dau Xuan
TTITLE2=Thanh Ha - Xuan yeu thuong
TTITLE3=Mong Thi - Chieu Xuan
TTITLE4=Sy Dan - Hat nang con lai
TTITLE5=Truc Quyen - Ruoc Xuan ve nha
TTITLE6=Thuy Vi, Thuy Huong - Tuoi mung Xuan
TTITLE7=Ngoc Bich - Khuc ca mung Xuan
TTITLE8=Truc Quyen - Cau chuyen dau nam
TTITLE9=Ngoc Anh - Diep khuc mung Xuan
EXTD=
EXTT0=
EXTT1=
EXTT2=
EXTT3=
EXTT4=
EXTT5=
EXTT6=
EXTT7=
EXTT8=
EXTT9=
PLAYORDER=
